# xmcd
#
# Track frame offsets: 
#        150
#        12655
#        25367
#        35970
#        48500
#        58955
#        73160
#        88120
#        101097
#        114847
#
# Disc length: 1657 seconds
#
# Revision: 2
# Processed by: cddbd v1.4PL0 Copyright (c) Steve Scherf et al.
# Submitted via: ExactAudioCopy v0.90b4
#
DISCID=9306770a
DTITLE=Roy Acuff - Greatest Hits
DYEAR=1900
DGENRE=Country
TTITLE0=The Wabash Cannonball
TTITLE1=The Great Speckled Bird
TTITLE2=Fire Ball Mail
TTITLE3=Is It Love Or Is It Lies
TTITLE4=Sunshine Special
TTITLE5=The Precious Jewel
TTITLE6=The Great Judgement Morning
TTITLE7=The Thief Upon The Tree
TTITLE8=The Wreck On The Highway
TTITLE9=Night Train To Memphis
EXTD=
EXTT0=
EXTT1=
EXTT2=
EXTT3=
EXTT4=
EXTT5=
EXTT6=
EXTT7=
EXTT8=
EXTT9=
PLAYORDER=
